<svg  version="1.1" id="sgvlib" xmlns:svg="http://www.w3.org/2000/svg" xmlns:k="http://schemas.kapit.fr/svg/2007/"
	 xmlns="http://www.w3.org/2000/svg" xmlns:xlink="http://www.w3.org/1999/xlink" width="612" height="792" viewBox="0 0 612 792"
	 overflow="visible" enable-background="new 0 0 612 792" xml:space="preserve">

<defs id="defs1">
<style type="text/css">
<![CDATA[
.basic {
action-accept:annotation;
}
.outonly {
action-click:link;
}
.bg{
action-click:link;
action-accept:link;
}
.annotation {
font-style:italic;
}
.link-annotation
{
font-size:12px;
fill:#666;
}
]]>
</style>
</defs>
<!-- Graphic Objects need an empty path around them to house the class="bg" target and that object must have a thick border upon which you can link edges-->
<g id="kefed_expobject" k:groupid="Basic" class="basic" k:spriteid="Experimental Object">
	<rect id="expobject_rect" stroke-width="3" x="60" y="36" fill="#FFFFFF" stroke="#6996CF" stroke-linecap="round" width="112" height="55"/>
	<polygon class="bg" id="expobj_path" fill="none" stroke="#6996cf" stroke-width="3" points="60,36 172,36 172,91 60,91"/>
</g>
<g id="kefed_indepvariabledata" k:groupid="Basic" class="basic" k:spriteid="Independent Variable Data">
	<rect id="indepdrect1" stroke-width="3" x="132.686" y="266.571" fill="#6A99CE" stroke="#6996CF" stroke-linecap="round" width="18.333" height="55.897"/>
	<line id="indepdline1" fill="none" stroke="#FFFFFF" stroke-linecap="round" x1="150.929" y1="303.904" x2="132.656" y2="303.904"/>
	<line id="indepdline2" fill="none" stroke="#FFFFFF" stroke-linecap="round" x1="150.928" y1="285.237" x2="132.625" y2="285.237"/>
	<rect id="indepd_path" class="bg" stroke-width="3" x="132.686" y="266.571" fill="none" stroke="#6996CF" stroke-linecap="round" width="18.333" height="55.897"/>
</g>
<g id="kefed_depvariabledata" k:groupid="Basic" class="basic" k:spriteid="Dependendent Variable Data">
	<rect stroke-width="3" x="88.563" y="107.642" fill="#FFFFFF" stroke="#6996CF" stroke-linecap="round" width="55.866" height="55"/>
	<rect x="88.532" y="107.733" fill="#6A99CE" stroke="#6996CF" stroke-linecap="round" width="55.897" height="18.333"/>
	<line fill="none" stroke="#6996CF" stroke-linecap="round" x1="125.763" y1="107.642" x2="125.763" y2="162.642"/>
	<line fill="none" stroke="#6996CF" stroke-linecap="round" x1="107.096" y1="107.642" x2="107.096" y2="162.642"/>
	<line fill="none" stroke="#6996CF" stroke-linecap="round" x1="88.563" y1="125.975" x2="144.429" y2="125.975"/>
	<line fill="none" stroke="#6996CF" stroke-linecap="round" x1="88.563" y1="144.309" x2="144.429" y2="144.309"/>
	<rect x="88.549" y="125.975" fill="#6A99CE" stroke="#6996CF" stroke-linecap="round" width="18.547" height="36.667"/>
	<line fill="none" stroke="#FFFFFF" stroke-linecap="round" x1="88.549" y1="144.309" x2="107.096" y2="144.309"/>
	<line fill="none" stroke="#FFFFFF" stroke-linecap="round" x1="88.532" y1="125.975" x2="107.096" y2="125.975"/>
	<line fill="none" stroke="#FFFFFF" stroke-linecap="round" x1="107.096" y1="125.976" x2="107.096" y2="107.703"/>
	<line fill="none" stroke="#FFFFFF" stroke-linecap="round" x1="125.763" y1="125.975" x2="125.763" y2="107.672"/>
	<polygon class="bg" id="depv_path" fill="none" stroke-width="3" stroke="#6996CF" points="88.532,107.733 144.429,107.642 144.429,162.642 88.549,162.642 	"/>
</g>
<g id="kefed_activity" k:groupid="Basic" class="basic" k:spriteid="Activity">
	<path id="activity_ellipse" stroke-width="3" fill="#FFFFFF" stroke="#6996CF" d="M118.067,185.969c15.281,0,55.975,5.846,55.975,27.581c0,18.437-32.58,27.581-55.975,27.581
		c-49.842,0-55.975-23.397-55.975-27.581C62.092,193.249,102.174,185.969,118.067,185.969z"/>
	<path class="bg" id="activity_path" stroke-width="3" stroke="#6996CF" fill="none" d="M118.067,185.969c15.281,0,55.975,5.846,55.975,27.581c0,18.437-32.58,27.581-55.975,27.581
		c-49.842,0-55.975-23.397-55.975-27.581C62.092,193.249,102.174,185.969,118.067,185.969z"/>
</g>
<g id="kefed_fork" k:groupid="Basic" class="basic" k:spriteid="Fork">
	<rect id="forkrect1" x="198.373" y="60.247" stroke-width="3" fill="#6A99CE" stroke="#6996CF" stroke-linecap="round" width="112" height="3.633"/>
	<rect class="bg" stroke-width="3" stroke="#6996CF" id="fork_path" x="198.373" y="60.247" fill="none" width="112" height="3.633"/>
</g>
<g id="kefed_branch" k:groupid="Basic" class="basic" k:spriteid="Branch">
	<polygon id="branchshape1" fill="#FFFFFF" stroke="#6A99CE" stroke-width="3" points="335.322,108.536 343.674,117.887 335.323,127.237 326.973,117.886 "/>
	<polygon class="bg" id="branchpath1" fill="none" stroke="#6A99CE" stroke-width="3" points="335.322,108.536 343.674,117.887 335.323,127.237 326.973,117.886 "/>
</g>
</svg>

