<?xml version="1.0" encoding="utf-8"?>
<!-- Generator: Adobe Illustrator 12.0.1, SVG Export Plug-In . SVG Version: 6.00 Build 51448)  -->
<!DOCTYPE svg PUBLIC "-//W3C//DTD SVG 1.1//EN" "http://www.w3.org/Graphics/SVG/1.1/DTD/svg11.dtd" [
	<!ENTITY ns_svg "http://www.w3.org/2000/svg">
	<!ENTITY ns_xlink "http://www.w3.org/1999/xlink">
]>
<svg  version="1.1" id="sgvlib" xmlns:k="http://schemas.kapit.fr/svg/2007/" xmlns:svg="http://www.w3.org/2000/svg"
	 xmlns="&ns_svg;" xmlns:xlink="&ns_xlink;" width="612" height="792" viewBox="0 0 612 792"
	 overflow="visible" enable-background="new 0 0 612 792" xml:space="preserve">
<rect id="expobject_rect" x="60" y="22" fill="#FFFFFF" stroke="#6996CF" stroke-width="3" stroke-linecap="round" width="112" height="55"/>
<polygon id="expobj_path" fill="none" stroke="#E6F2FF" stroke-width="5" points="56.032,18.083 175.917,18.083 175.917,81.083 
	56.032,81.083 "/>
<g>
	
		<rect x="88.563" y="107.642" fill="#FFFFFF" stroke="#6996CF" stroke-width="3" stroke-linecap="round" width="55.866" height="55"/>
	<rect x="88.532" y="107.733" fill="#6A99CE" stroke="#6996CF" stroke-linecap="round" width="55.897" height="18.333"/>
	<line fill="none" stroke="#6996CF" stroke-linecap="round" x1="125.763" y1="107.642" x2="125.763" y2="162.642"/>
	<line fill="none" stroke="#6996CF" stroke-linecap="round" x1="107.096" y1="107.642" x2="107.096" y2="162.642"/>
	<line fill="none" stroke="#6996CF" stroke-linecap="round" x1="88.563" y1="125.975" x2="144.429" y2="125.975"/>
	<line fill="none" stroke="#6996CF" stroke-linecap="round" x1="88.563" y1="144.309" x2="144.429" y2="144.309"/>
	<rect x="88.549" y="125.975" fill="#6A99CE" stroke="#6996CF" stroke-linecap="round" width="18.547" height="36.667"/>
	<line fill="none" stroke="#FFFFFF" stroke-linecap="round" x1="88.549" y1="144.309" x2="107.096" y2="144.309"/>
	<line fill="none" stroke="#FFFFFF" stroke-linecap="round" x1="88.532" y1="125.975" x2="107.096" y2="125.975"/>
	<line fill="none" stroke="#FFFFFF" stroke-linecap="round" x1="107.096" y1="125.976" x2="107.096" y2="107.703"/>
	<line fill="none" stroke="#FFFFFF" stroke-linecap="round" x1="125.763" y1="125.975" x2="125.763" y2="107.672"/>
	<polygon id="depv_path" fill="none" stroke="#E6F2FF" stroke-width="5" points="84.5,103.499 148.5,103.396 148.5,166.5 
		84.519,166.5 	"/>
</g>
<g>
	<path id="activity_ellipse" fill="#FFFFFF" stroke="#6996CF" stroke-width="3" d="M118.067,185.969
		c15.281,0,55.975,5.846,55.975,27.581c0,18.437-32.58,27.581-55.975,27.581c-49.842,0-55.975-23.397-55.975-27.581
		C62.092,193.249,102.174,185.969,118.067,185.969z"/>
	<path id="activity_path" fill="none" stroke="#E6F2FF" stroke-width="5" d="M117.75,182.264c16.312,0,59.75,6.649,59.75,31.368
		c0,20.969-34.777,31.368-59.75,31.368C64.547,245,58,218.391,58,213.632C58,190.543,100.785,182.264,117.75,182.264z"/>
</g>
<g>
	<polygon id="branchshape1" fill="#FFFFFF" stroke="#6A99CE" stroke-width="3" points="113.315,436.662 127.428,452.465 
		113.316,468.266 99.204,452.462 	"/>
	<polygon id="branchpath1" fill="none" stroke="#E6F3FF" stroke-width="5" points="113.458,430.922 133.083,452.545 
		113.458,474.166 93.833,452.541 	"/>
</g>
<g>
	
		<rect id="forkrect1_4_" x="71.354" y="383.104" fill="#6A99CE" stroke="#6996CF" stroke-width="3" stroke-linecap="round" width="291.146" height="8.812"/>
	<rect id="fork_path" x="68.5" y="380.777" fill="none" stroke="#E6F4FF" stroke-width="5" width="297.111" height="14.139"/>
</g>
<g>
	
		<rect id="indepdrect1" x="104.352" y="263.371" fill="#6A99CE" stroke="#6996CF" stroke-width="3" stroke-linecap="round" width="25.024" height="76.299"/>
	
		<line id="indepdline1" fill="none" stroke="#FFFFFF" stroke-linecap="round" x1="129.253" y1="314.329" x2="104.311" y2="314.329"/>
	
		<line id="indepdline2" fill="none" stroke="#FFFFFF" stroke-linecap="round" x1="129.252" y1="288.849" x2="104.268" y2="288.849"/>
	
		<rect id="indepd_path" x="104.352" y="263.371" fill="none" stroke="#E6F2FF" stroke-width="5" stroke-linecap="round" width="25.024" height="76.299"/>
</g>
</svg>
